<svg xmlns="http://www.w3.org/2000/svg" height="100" preserveAspectRatio="xMinYMin meet" viewBox="0 0 199.85 95.18" width="200"><path fill="#212429" d="M41.15 29.76l-14.13 8.01 14.13 8.18 14.16-8.16-14.16-8.03m-1.34 18.48l-14.72-8.52v17.34l14.72 8.34V48.24"/><path fill="#212429" d="M40.48 26.95a1.22 1.22 0 0 1 1.34 0L58 36.23l15.55-9-32.4-18.88L8.83 27.23l15.51 9z"/><path fill="#212429" d="M41.22 0L0 23.8v47.58l41.22 23.8 41.21-23.8V23.8zm36.19 68a1.24 1.24 0 0 1-.4 1.2L41.69 89.44a.7.7 0 0 1-.54.27 1.21 1.21 0 0 1-.67-.12L5.42 69.1a1.24 1.24 0 0 1-.4-1.2V27.22a1.24 1.24 0 0 1 .4-1.2l35.2-20.34a1.21 1.21 0 0 1 1.34 0l35.05 20.33a1.24 1.24 0 0 1 .4 1.2v40.82z"/><path fill="#212429" d="M59.93 57.86a1.54 1.54 0 0 1-.8 1.2l-16.64 9.53v17.52L74.6 67.23V29.77L59.93 38.3v19.56z"/><path fill="#212429" d="M57.2 39.85l-14.72 8.52V65.4l14.72-8.34V39.85M23.22 59.06a1.78 1.78 0 0 1-.8-1.2V38.18L7.7 29.66v37.57l32.11 18.88V68.59z"/><path fill="#f1f4f6" d="M77.01 26.01L41.93 5.68a1.21 1.21 0 0 0-1.34 0L5.42 26.01a1.24 1.24 0 0 0-.4 1.2v40.68a1.24 1.24 0 0 0 .4 1.2l35.06 20.5a1.21 1.21 0 0 0 .67.13.7.7 0 0 0 .54-.27l35.32-20.2a1.24 1.24 0 0 0 .4-1.2V27.22a1.24 1.24 0 0 0-.4-1.21zM41.15 8.35l32.4 18.92-15.55 9-16.18-9.32a1.22 1.22 0 0 0-1.34 0l-16.14 9.26-15.51-9zM25.09 39.72l14.72 8.52V65.4l-14.72-8.34V39.72zm16.06 6.23l-14.13-8.18 14.13-8 14.16 8zm1.34 2.42l14.72-8.52v17.21L42.49 65.4v-17zM7.7 67.23V29.66l14.72 8.52v19.68a1.78 1.78 0 0 0 .8 1.2l16.59 9.53v17.52zm66.9 0L42.49 86.11V68.59l16.59-9.52a1.54 1.54 0 0 0 .8-1.2V38.3l14.72-8.52v37.45z"/><path fill="#4e98d3" d="M104.18 25.72a12.24 12.24 0 0 1 3.27.42 7.91 7.91 0 0 1 2.7 1.31 6.35 6.35 0 0 1 1.85 2.26 7.36 7.36 0 0 1 .69 3.32 6.84 6.84 0 0 1-1.43 4.56 7.73 7.73 0 0 1-3.66 2.4l5.33 9.28a.88.88 0 0 1 .11.39.78.78 0 0 1-.78.78h-1.52a1.37 1.37 0 0 1-1-.35 3.3 3.3 0 0 1-.48-.6l-5.12-9h-6.11v9a1 1 0 0 1-1 1h-1.4a1 1 0 0 1-1-1V26.67a1 1 0 0 1 1-1h8.55zM98.03 37.3h6a6.65 6.65 0 0 0 3.94-1 3.75 3.75 0 0 0 1.39-3.27 3.56 3.56 0 0 0-1.39-3.2 7 7 0 0 0-3.94-.94h-6v8.41zm34.33 9.96a1 1 0 0 1 1 1v1.23a1 1 0 0 1-1 1h-14.27a1 1 0 0 1-1-1V26.67a1 1 0 0 1 1-1h14a1 1 0 0 1 1 1v1.27a1 1 0 0 1-1 1H120.5v7.45h10.81a1 1 0 0 1 1 1v1.2a1 1 0 0 1-1 1H120.5v7.73h11.87zm20.24-2.4h-12.26l-1.83 4.73a1.79 1.79 0 0 1-.39.58 1.32 1.32 0 0 1-1 .3h-1.31a.78.78 0 0 1-.78-.78 1.34 1.34 0 0 1 .14-.49l8.65-22.29a3 3 0 0 1 .53-.78 1.36 1.36 0 0 1 1.06-.39h2.12a1.36 1.36 0 0 1 1.06.39 3.07 3.07 0 0 1 .53.78l8.62 22.29a1.34 1.34 0 0 1 .14.49.78.78 0 0 1-.78.78h-1.31a1.32 1.32 0 0 1-1-.3 1.78 1.78 0 0 1-.39-.58zm-11-3.18h9.78l-4.87-12.61zm21.42-6.57q-.07 1.59-.07 3t.07 3a7.13 7.13 0 0 0 1.78 4.75 6.23 6.23 0 0 0 4.82 1.73 8.43 8.43 0 0 0 2.86-.42 5.94 5.94 0 0 0 1.92-1.09 4.72 4.72 0 0 0 1.18-1.49 9.09 9.09 0 0 0 .62-1.75.86.86 0 0 1 .35-.58 1 1 0 0 1 .56-.19h1.62a.79.79 0 0 1 .78.78 7.36 7.36 0 0 1-.6 2.54 8.22 8.22 0 0 1-1.75 2.6 9.46 9.46 0 0 1-3 2 11.19 11.19 0 0 1-4.5.81 10.92 10.92 0 0 1-4.1-.72 9.25 9.25 0 0 1-3.09-2 8.81 8.81 0 0 1-2-3 11.14 11.14 0 0 1-.78-3.83q-.11-3.14 0-6.29a11.21 11.21 0 0 1 .78-3.81 8.78 8.78 0 0 1 2-3 9.27 9.27 0 0 1 3.09-2 10.92 10.92 0 0 1 4.1-.72 11.19 11.19 0 0 1 4.5.81 9.47 9.47 0 0 1 3 2 8.22 8.22 0 0 1 1.75 2.6 7.36 7.36 0 0 1 .6 2.54.79.79 0 0 1-.78.78h-1.62a1 1 0 0 1-.56-.19.85.85 0 0 1-.35-.58 9.12 9.12 0 0 0-.62-1.75 4.73 4.73 0 0 0-1.17-1.54 5.94 5.94 0 0 0-1.92-1.09 8.43 8.43 0 0 0-2.86-.42 6.23 6.23 0 0 0-4.82 1.82 7.13 7.13 0 0 0-1.79 4.7zm35.91-9.39a1 1 0 0 1 1 1v1.27a1 1 0 0 1-1 1h-6.61v20.5a1 1 0 0 1-1 1h-1.39a1 1 0 0 1-1-1V28.9h-6.61a1 1 0 0 1-1-1v-1.23a1 1 0 0 1 1-1h16.61z"/><path fill="#72747a" d="M99.25 57.75a5.88 5.88 0 0 1 1.57.2 3.81 3.81 0 0 1 1.3.63 3 3 0 0 1 .89 1.09 3.54 3.54 0 0 1 .33 1.6 3.29 3.29 0 0 1-.69 2.19 3.72 3.72 0 0 1-1.72 1.13l2.57 4.47a.42.42 0 0 1 .05.19.38.38 0 0 1-.37.37h-.73a.66.66 0 0 1-.5-.17 1.58 1.58 0 0 1-.23-.29l-2.46-4.33h-2.97v4.36a.46.46 0 0 1-.46.46h-.7a.46.46 0 0 1-.46-.46v-11a.46.46 0 0 1 .46-.46h4.11zm-3 5.57h2.87a3.2 3.2 0 0 0 1.89-.48 1.81 1.81 0 0 0 .67-1.57 1.71 1.71 0 0 0-.67-1.54 3.39 3.39 0 0 0-1.89-.45h-2.83v4zm16.56 4.8a.46.46 0 0 1 .46.46v.61a.46.46 0 0 1-.46.46h-6.88a.46.46 0 0 1-.46-.46v-11a.46.46 0 0 1 .46-.46h6.73a.46.46 0 0 1 .46.46v.61a.46.46 0 0 1-.46.46h-5.57v3.58h5.2a.46.46 0 0 1 .46.46v.61a.46.46 0 0 1-.46.46h-5.2v3.72h5.71zm9.68-9.94a.86.86 0 0 1 .19-.28.64.64 0 0 1 .48-.14h.63a.38.38 0 0 1 .37.37.45.45 0 0 1 0 .17l-3.67 10.67a1 1 0 0 1-.33.49.87.87 0 0 1-.57.19h-.68a.84.84 0 0 1-.56-.19 1.07 1.07 0 0 1-.32-.49l-3.69-10.67a.45.45 0 0 1 0-.17.38.38 0 0 1 .37-.37h.63a.64.64 0 0 1 .48.14.86.86 0 0 1 .19.28l3.28 9.77zm10.75 9.94a.46.46 0 0 1 .46.46v.61a.46.46 0 0 1-.46.46h-6.86a.46.46 0 0 1-.45-.46v-11a.46.46 0 0 1 .46-.46h6.73a.46.46 0 0 1 .46.46v.61a.46.46 0 0 1-.46.46h-5.57v3.58h5.2a.46.46 0 0 1 .46.46v.61a.46.46 0 0 1-.46.46h-5.2v3.72h5.71zm9.86 0a.46.46 0 0 1 .46.46v.61a.46.46 0 0 1-.46.46h-6.91a.46.46 0 0 1-.46-.46v-11a.46.46 0 0 1 .46-.46h.7a.46.46 0 0 1 .46.46v9.9h5.76zm9.24-1.16h-5.89l-.88 2.26a.86.86 0 0 1-.19.28.64.64 0 0 1-.48.14h-.63a.38.38 0 0 1-.37-.37.64.64 0 0 1 .07-.24l4.16-10.72a1.44 1.44 0 0 1 .25-.37.65.65 0 0 1 .51-.19h1a.66.66 0 0 1 .51.19 1.48 1.48 0 0 1 .25.37l4.15 10.72a.65.65 0 0 1 .07.24.38.38 0 0 1-.37.37h-.57a.64.64 0 0 1-.48-.14.87.87 0 0 1-.19-.28zm-5.3-1.53h4.71l-2.34-6.07zm15.48-7.68a.46.46 0 0 1 .46.46v.61a.46.46 0 0 1-.46.46h-3.18v9.9a.46.46 0 0 1-.46.46h-.7a.46.46 0 0 1-.46-.46v-9.9h-3.18a.46.46 0 0 1-.46-.46v-.61a.46.46 0 0 1 .46-.46h8zm2.51 11.9a.46.46 0 0 1-.46-.46v-11a.46.46 0 0 1 .46-.46h.7a.46.46 0 0 1 .46.46v11a.46.46 0 0 1-.46.46h-.7zm3.38-7.46a5.35 5.35 0 0 1 .33-1.79 4.22 4.22 0 0 1 .91-1.46 4.33 4.33 0 0 1 1.46-1 5.59 5.59 0 0 1 4 0 4.32 4.32 0 0 1 1.46 1 4.23 4.23 0 0 1 .91 1.46 5.38 5.38 0 0 1 .33 1.79q.05 1.51 0 3a5.66 5.66 0 0 1-.35 1.79 4.31 4.31 0 0 1-.91 1.47 4.17 4.17 0 0 1-1.45 1 5.67 5.67 0 0 1-4 0 4.17 4.17 0 0 1-1.45-1 4.3 4.3 0 0 1-.91-1.47 5.64 5.64 0 0 1-.35-1.79q-.03-1.49.02-3zm7.76.09a4.41 4.41 0 0 0-.26-1.39 2.67 2.67 0 0 0-.64-1 2.64 2.64 0 0 0-1-.59 3.87 3.87 0 0 0-2.43 0 2.64 2.64 0 0 0-1 .59 2.76 2.76 0 0 0-.65 1 4 4 0 0 0-.25 1.39v2.86a4 4 0 0 0 .25 1.39 2.76 2.76 0 0 0 .65 1 2.64 2.64 0 0 0 1 .59 3.87 3.87 0 0 0 2.43 0 2.64 2.64 0 0 0 1-.59 2.67 2.67 0 0 0 .64-1 4.4 4.4 0 0 0 .26-1.39v-2.87zm11.66 7.37a.54.54 0 0 1-.4-.16 2 2 0 0 1-.28-.35l-5.52-8.31v8.36a.46.46 0 0 1-.46.46h-.7a.46.46 0 0 1-.46-.46v-11a.46.46 0 0 1 .46-.46h.6a.54.54 0 0 1 .4.16 2.05 2.05 0 0 1 .28.35l5.52 8.35v-8.38a.46.46 0 0 1 .46-.46h.7a.46.46 0 0 1 .46.46v11a.46.46 0 0 1-.46.46h-.6zm7.37-12.06a4.8 4.8 0 0 1 1.83.32 5 5 0 0 1 1.34.79 3.52 3.52 0 0 1 .84 1 2.27 2.27 0 0 1 .31 1 .3.3 0 0 1-.1.26.39.39 0 0 1-.27.11h-.7a.56.56 0 0 1-.3-.07.75.75 0 0 1-.23-.31 3.15 3.15 0 0 0-.28-.43 2.52 2.52 0 0 0-.53-.51 3.28 3.28 0 0 0-.81-.42 3.14 3.14 0 0 0-1.1-.18 3.67 3.67 0 0 0-.91.11 2.57 2.57 0 0 0-.77.33 1.74 1.74 0 0 0-.54.55 1.45 1.45 0 0 0-.2.77 1.36 1.36 0 0 0 .2.75 1.75 1.75 0 0 0 .63.55 5.53 5.53 0 0 0 1.1.45q.66.2 1.61.46a10.37 10.37 0 0 1 1.64.56 4.28 4.28 0 0 1 1.1.69 2.31 2.31 0 0 1 .62.88 3.09 3.09 0 0 1 .2 1.13 3 3 0 0 1-.33 1.4 3.29 3.29 0 0 1-.93 1.1 4.42 4.42 0 0 1-1.44.71 6.47 6.47 0 0 1-1.88.25 5.51 5.51 0 0 1-1.82-.29 5 5 0 0 1-1.43-.75 3.87 3.87 0 0 1-.94-1 2.22 2.22 0 0 1-.37-1.1.38.38 0 0 1 .37-.37h.7a.63.63 0 0 1 .3.07.6.6 0 0 1 .23.31 2.53 2.53 0 0 0 .31.52 2.45 2.45 0 0 0 .57.53 3.42 3.42 0 0 0 .87.42 3.82 3.82 0 0 0 1.21.17 4.56 4.56 0 0 0 1.13-.14 3.29 3.29 0 0 0 .94-.39 2.1 2.1 0 0 0 .65-.61 1.41 1.41 0 0 0 .24-.8 1.12 1.12 0 0 0-.33-.82 2.5 2.5 0 0 0-.78-.57 7.37 7.37 0 0 0-1.22-.43l-1.67-.45a6.68 6.68 0 0 1-1.44-.54 3.54 3.54 0 0 1-1-.72 2.46 2.46 0 0 1-.53-.9 3.41 3.41 0 0 1-.16-1.07 3.08 3.08 0 0 1 .25-1.22 3 3 0 0 1 .76-1.05 3.78 3.78 0 0 1 1.26-.74 5.1 5.1 0 0 1 1.8-.31z"/></svg>