<svg height="100" preserveAspectRatio="xMinYMin meet" xmlns="http://www.w3.org/2000/svg" viewBox="0 0 150 100" width="150"><path fill="#f1f4f6" d="M18.5 21.3a16 16 0 0 1 4.3.6 10.4 10.4 0 0 1 3.5 1.7 8.3 8.3 0 0 1 2.4 3 9.6 9.6 0 0 1 .9 4.4 9 9 0 0 1-1.9 6 10.1 10.1 0 0 1-4.7 3l7 12.2a1.2 1.2 0 0 1 .1.5 1 1 0 0 1-1 1h-2a1.8 1.8 0 0 1-1.4-.5l-.6-.8-6.6-11.7h-8v11.8a1.3 1.3 0 0 1-1.2 1.2h-2a1.3 1.3 0 0 1-1.2-1.2V22.6a1.3 1.3 0 0 1 1.2-1.2h11.2zm-8 15.2h7.8a8.7 8.7 0 0 0 5.2-1.3 4.9 4.9 0 0 0 1.8-4.3q0-3-1.8-4.2a9.2 9.2 0 0 0-5.2-1.2h-7.8v11zm45 13.1a1.3 1.3 0 0 1 1.2 1.2v1.7a1.3 1.3 0 0 1-1.2 1.2H36.8a1.3 1.3 0 0 1-1.2-1.2V22.6a1.3 1.3 0 0 1 1.2-1.2h18.3a1.3 1.3 0 0 1 1.2 1.2v1.7a1.3 1.3 0 0 1-1.2 1.2H39.9v9.8h14.2a1.3 1.3 0 0 1 1.2 1.2v1.7a1.3 1.3 0 0 1-1.2 1.2H39.9v10.2h15.6zM82 46.4H65.9l-2.4 6.2a2.3 2.3 0 0 1-.5.8 1.7 1.7 0 0 1-1.3.4H60a1 1 0 0 1-1-1 1.8 1.8 0 0 1 .2-.6l11.3-29.3a4 4 0 0 1 .7-1 1.8 1.8 0 0 1 1.4-.5h2.8a1.8 1.8 0 0 1 1.4.5 4 4 0 0 1 .7 1l11.2 29.2a1.8 1.8 0 0 1 .2.6 1 1 0 0 1-1 1h-1.7a1.7 1.7 0 0 1-1.3-.4 2.3 2.3 0 0 1-.5-.8zm-14.5-4.1h12.9L74 25.7zm28.1-8.6q-.1 2.1-.1 3.9t.1 3.9a9.3 9.3 0 0 0 2.4 6.1 8.2 8.2 0 0 0 6.3 2.4 11 11 0 0 0 3.7-.6 7.8 7.8 0 0 0 2.5-1.4 6.2 6.2 0 0 0 1.5-2 11.9 11.9 0 0 0 .8-2.3 1.1 1.1 0 0 1 .5-.8l.7-.3h2.1a1 1 0 0 1 1 1 9.6 9.6 0 0 1-.8 3.3 10.8 10.8 0 0 1-2.3 3.4 12.4 12.4 0 0 1-4 2.7 14.7 14.7 0 0 1-5.9 1.1 14.3 14.3 0 0 1-5.4-.9 12.1 12.1 0 0 1-4-2.6 11.5 11.5 0 0 1-2.6-4 14.6 14.6 0 0 1-1-5q-.1-4.1 0-8.2a14.7 14.7 0 0 1 1-5 11.5 11.5 0 0 1 2.6-4 12.1 12.1 0 0 1 4-2.6 14.3 14.3 0 0 1 5.4-.9A14.7 14.7 0 0 1 110 22a12.4 12.4 0 0 1 4 2.7 10.8 10.8 0 0 1 2.3 3.4 9.6 9.6 0 0 1 .8 3.3 1 1 0 0 1-1 1H114l-.7-.3a1.1 1.1 0 0 1-.5-.8 11.9 11.9 0 0 0-.8-2.3 6.2 6.2 0 0 0-1.5-2 7.8 7.8 0 0 0-2.5-1.4 11 11 0 0 0-3.7-.6 8.2 8.2 0 0 0-6.3 2.4 9.3 9.3 0 0 0-2.4 6.3zm47.1-12.4a1.3 1.3 0 0 1 1.2 1.2v1.7a1.3 1.3 0 0 1-1.2 1.2H134v27a1.3 1.3 0 0 1-1.2 1.2h-1.9a1.3 1.3 0 0 1-1.2-1.2v-27H121a1.3 1.3 0 0 1-1.2-1.2v-1.6a1.3 1.3 0 0 1 1.2-1.2h21.7z"/><path fill="#f2b657" d="M12.1 63.3l2.1.3a5 5 0 0 1 1.7.8 4 4 0 0 1 1.1 1.4 4.6 4.6 0 0 1 .4 2.1 4.3 4.3 0 0 1-.9 2.9 4.9 4.9 0 0 1-2.3 1.5l3.4 5.9v.2a.5.5 0 0 1-.1.3h-1.3a.9.9 0 0 1-.7-.2l-.3-.4-3.2-5.5H8.2v5.7a.6.6 0 0 1-.2.4l-.4.2h-.9l-.4-.2a.6.6 0 0 1-.2-.4V63.9a.6.6 0 0 1 .2-.4l.4-.2h5.4zm-3.9 7.3H12a4.2 4.2 0 0 0 2.5-.6 2.4 2.4 0 0 0 .9-2.1 2.2 2.2 0 0 0-.9-2 4.4 4.4 0 0 0-2.5-.6H8.2v5.3zm21.6 6.3l.4.2a.6.6 0 0 1 .2.4v.8a.6.6 0 0 1-.2.4l-.4.2h-9l-.4-.2a.6.6 0 0 1-.2-.4V63.9a.6.6 0 0 1 .2-.4l.4-.2h8.8l.4.2a.6.6 0 0 1 .2.4v.8a.6.6 0 0 1-.2.4l-.4.2h-7.2V70h6.8l.4.2a.6.6 0 0 1 .2.4v.8a.6.6 0 0 1-.2.4l-.4.2h-6.8v4.9h7.5zm12.7-13l.2-.4.6-.2h1.2a.5.5 0 0 1 .1.3v.4l-4.7 14a1.4 1.4 0 0 1-.4.6l-.7.2h-1l-.7-.2a1.4 1.4 0 0 1-.4-.6l-4.9-14v-.2a.5.5 0 0 1 .1-.3h1.2l.6.2.2.4 4.3 12.8zm14.1 13l.4.2a.6.6 0 0 1 .2.4v.8a.6.6 0 0 1-.2.4l-.4.2h-9l-.4-.2a.6.6 0 0 1-.2-.4V63.9a.6.6 0 0 1 .2-.4l.4-.2h8.8l.4.2a.6.6 0 0 1 .2.4v.8a.6.6 0 0 1-.2.4l-.4.2h-7.3V70H56l.4.2a.6.6 0 0 1 .2.4v.8a.6.6 0 0 1-.2.4l-.4.2h-6.9v4.9h7.5zm12.9 0l.5.2a.6.6 0 0 1 .2.4v.8a.6.6 0 0 1-.2.4l-.4.2h-9.1l-.4-.2a.6.6 0 0 1-.2-.4V63.9a.6.6 0 0 1 .2-.4l.4-.2h.9l.4.2a.6.6 0 0 1 .2.4v13h7.5zm12.1-1.5h-7.7l-1.2 3-.2.4-.6.2h-1.2a.5.5 0 0 1-.1-.3v-.6l5.5-14 .3-.5a.9.9 0 0 1 .7-.2h1.3a.9.9 0 0 1 .7.2l.3.5 5.4 14v.3a.5.5 0 0 1-.1.3H83l-.2-.4zm-6.9-2h6.2l-3.1-7.9zM95 63.3l.4.2a.6.6 0 0 1 .2.4v.8a.6.6 0 0 1-.2.4l-.4.2h-4.2v13a.6.6 0 0 1-.2.4l-.4.2h-.9l-.4-.2a.6.6 0 0 1-.2-.4v-13h-4.2l-.4-.2a.6.6 0 0 1-.2-.4v-.8a.6.6 0 0 1 .2-.4l.4-.2H95zm3.3 15.6l-.4-.2a.6.6 0 0 1-.2-.4V63.9a.6.6 0 0 1 .2-.4l.4-.2h.9l.4.2a.6.6 0 0 1 .2.4v14.4a.6.6 0 0 1-.2.4l-.4.2h-.9zm4.4-9.8a7 7 0 0 1 .4-2.3 5.5 5.5 0 0 1 1.2-1.9 5.7 5.7 0 0 1 1.9-1.3 7.3 7.3 0 0 1 5.2 0 5.7 5.7 0 0 1 1.9 1.3 5.5 5.5 0 0 1 1.2 1.9 7.1 7.1 0 0 1 .4 2.3q.1 2 0 4a7.4 7.4 0 0 1-.5 2.3 5.6 5.6 0 0 1-1.2 1.9 5.5 5.5 0 0 1-1.9 1.3 7.4 7.4 0 0 1-5.2 0 5.5 5.5 0 0 1-1.9-1.3 5.6 5.6 0 0 1-1.2-1.9 7.4 7.4 0 0 1-.5-2.3l.2-4zm10.2.1a5.8 5.8 0 0 0-.3-1.8 3.5 3.5 0 0 0-.8-1.3 3.5 3.5 0 0 0-1.3-.8l-1.6-.3-1.6.3a3.5 3.5 0 0 0-1.3.8 3.6 3.6 0 0 0-.8 1.3 5.2 5.2 0 0 0-.3 1.8V73a5.2 5.2 0 0 0 .3 1.8 3.6 3.6 0 0 0 .8 1.3 3.5 3.5 0 0 0 1.3.8l1.6.3 1.6-.3a3.5 3.5 0 0 0 1.3-.8 3.5 3.5 0 0 0 .8-1.3 5.8 5.8 0 0 0 .3-1.8v-3.8zm15.2 9.7l-.5-.2-.4-.5-7.2-10.9v11a.6.6 0 0 1-.2.4l-.4.2h-.9l-.4-.2a.6.6 0 0 1-.2-.4V63.9a.6.6 0 0 1 .2-.4l.4-.2h.8l.5.2.4.5 7.2 10.9v-11a.6.6 0 0 1 .2-.4l.4-.2h.9l.4.2a.6.6 0 0 1 .2.4v14.4a.6.6 0 0 1-.2.4l-.4.2h-.8zm9.7-15.8a6.3 6.3 0 0 1 2.4.4 6.5 6.5 0 0 1 1.8 1 4.6 4.6 0 0 1 1.1 1.3 3 3 0 0 1 .4 1.3.4.4 0 0 1-.1.3h-1.7l-.3-.4-.4-.6-.7-.7-1.1-.6-1.4-.2h-1.2l-1 .4a2.3 2.3 0 0 0-.7.7 1.9 1.9 0 0 0-.3 1 1.8 1.8 0 0 0 .3 1 2.3 2.3 0 0 0 .8.7l1.4.6 2.1.6 2.1.7a5.6 5.6 0 0 1 1.4.9 3 3 0 0 1 .8 1.2 4.1 4.1 0 0 1 .3 1.5 3.9 3.9 0 0 1-.4 1.8 4.3 4.3 0 0 1-1.2 1.4 5.8 5.8 0 0 1-1.9.9 8.5 8.5 0 0 1-2.5.3 7.2 7.2 0 0 1-2.4-.4 6.5 6.5 0 0 1-1.9-1 5.1 5.1 0 0 1-1.2-1.3 2.9 2.9 0 0 1-.3-.9.5.5 0 0 1 .1-.3h1.6l.3.3.4.7.7.7 1.1.5 1.6.2 1.5-.2 1.2-.5a2.7 2.7 0 0 0 .8-.8 1.8 1.8 0 0 0 .3-1 1.5 1.5 0 0 0-.4-1 3.3 3.3 0 0 0-1-.7l-1.6-.6-2.2-.6-1.9-.7a4.6 4.6 0 0 1-1.3-.9 3.2 3.2 0 0 1-.7-1.2 4.5 4.5 0 0 1-.2-1.4 4 4 0 0 1 .3-1.6 4 4 0 0 1 1-1.4 5 5 0 0 1 1.6-1 6.7 6.7 0 0 1 2.6-.4z"/></svg>
