<svg height="100" preserveAspectRatio="xMinYMin meet" xmlns="http://www.w3.org/2000/svg" viewBox="0 0 100 100" width="100"><path fill="#212429" d="M50 31.3l-15 8.4 15 8.6 14.8-8.6-15-8.4m-1.3 19.4l-15.4-9V60l16 8.7v-18"/><path fill="#212429" d="M49.2 28.3a1.3 1.3 0 0 1 1.4 0l17 9.8L84 29 50 9 16 29l16.3 9z"/><path fill="#212429" d="M50 0L6.7 25v50L50 100l43.3-25V25zm38 71.5a1.3 1.3 0 0 1-.4 1.3L50.6 94a.7.7 0 0 1-.7.3h-1L12 72.6a1.3 1.3 0 0 1-.4-1.3V28.6a1.3 1.3 0 0 1 .3-1.3L49 6a1.3 1.3 0 0 1 2 0l36.8 21.3a1.3 1.3 0 0 1 .4 1.3v43z"/><path fill="#212429" d="M69.6 60.8a1.6 1.6 0 0 1-.8 1.3L51.4 72v18.5l33.7-20v-39l-15 9V61z"/><path fill="#212429" d="M66.8 42l-15.5 8.8v18l15.5-9V42M31 62a2 2 0 0 1-.7-1.2V40l-15.5-8.8v39.4l33.7 20V72z"/><path fill="#f1f4f6" d="M87.6 27.3L50.8 6a1.3 1.3 0 0 0-1.4 0l-37 21.4a1.3 1.3 0 0 0-.4 1.3v42.6a1.3 1.3 0 0 0 .4 1.3L49.2 94h.7a.7.7 0 0 0 0-.2l37-21a1.3 1.3 0 0 0 0-1.4V28.6a1.3 1.3 0 0 0-.5-1.3zM50 8.8l34 20L67.6 38l-17-9.7a1.3 1.3 0 0 0-1.4 0l-17 9.7L16 28.6zm-17 33l15.5 9v18l-15.4-9V42zm17 6.5l-15-8.6 15-8.4 14.8 8.4zm1.3 2.5l15.5-9v18l-15.5 9v-18zM14.8 70.6V31.2l15.5 9v20.6A2 2 0 0 0 31 62l17.5 10v18.5zm70.3 0l-33 20V72l17-10a1.6 1.6 0 0 0 1-1.2V40.2l15.6-9v39.4z"/></svg>